<svg id="automated-security-response" data-name="automated-security-response" xmlns="http://www.w3.org/2000/svg" viewBox="0 0 140.78 85"><defs><style>.asr-cls-2{fill:#fff}.asr-cls-3{fill:#565656}.asr-cls-5{fill:#ed1c24}.asr-cls-7{fill:#0ea94e}</style></defs><path d="M138.09 64.17c-5.86.85-7-.63-9.65-3-2.64 2.33-3.8 3.81-9.66 3-3.12 15.55 9.66 19.9 9.66 19.9s12.77-4.35 9.65-19.9zm-6.51 12.67l-3.14-1.65-3.14 1.65.6-3.5-2.54-2.47 3.51-.51 1.57-3.18 1.56 3.18 3.51.51-2.51 2.47z" fill="#ffcd05"/><path class="asr-cls-2" d="M128.44 84.5h-.14c-.13 0-13.08-4.65-9.92-20.37l.07-.38.39.06c5.27.76 6.53-.36 8.81-2.4l.79-.71.79.7c2.27 2 3.53 3.17 8.8 2.41l.39-.06.07.38c1.65 8.2-1.13 13.31-3.76 16.14a16.67 16.67 0 0 1-6.16 4.23zm-9.33-19.87c-2.61 14 7.94 18.48 9.33 19 1.38-.52 11.93-5 9.32-19-5.34.71-6.84-.64-9.08-2.65l-.24-.22-.25.22c-2.19 2.02-3.74 3.35-9.08 2.65zm5.64 13l.7-4.1-3-2.91 4.12-.6 1.85-3.73 1.86 3.71 4.12.6-3 2.91.7 4.1-3.68-1.94zm3.69-2.86l2.56 1.32-.5-2.89 2.1-2-2.9-.42-1.29-2.63-1.3 2.63-2.9.42 2.1 2-.5 2.89z"/><path class="asr-cls-3" d="M50.31 45.55H5.08a3.3 3.3 0 0 1-3.29-3.29V34a3.3 3.3 0 0 1 3.29-3.29h45.23A3.29 3.29 0 0 1 53.6 34v8.23a3.29 3.29 0 0 1-3.29 3.32zM5.08 32.39A1.65 1.65 0 0 0 3.44 34v8.23a1.65 1.65 0 0 0 1.64 1.67h45.23A1.65 1.65 0 0 0 52 42.26V34a1.65 1.65 0 0 0-1.65-1.64z"/><path class="asr-cls-3" d="M53.09 32.39h-51l7.63-12.78a2.47 2.47 0 0 1 2.12-1.2h32A2.47 2.47 0 0 1 46 19.67zM5 30.74h45.29l-5.73-10.26a.83.83 0 0 0-.72-.43h-32a.84.84 0 0 0-.71.41zM50.31 58.7H5.08a3.29 3.29 0 0 1-3.29-3.29v-8.22a3.3 3.3 0 0 1 3.29-3.29h45.23a3.29 3.29 0 0 1 3.29 3.29v8.22a3.29 3.29 0 0 1-3.29 3.29zM5.08 45.55a1.64 1.64 0 0 0-1.64 1.64v8.22a1.65 1.65 0 0 0 1.64 1.65h45.23A1.65 1.65 0 0 0 52 55.41v-8.22a1.64 1.64 0 0 0-1.65-1.64z"/><path class="asr-cls-3" d="M50.31 71.86H5.08a3.29 3.29 0 0 1-3.29-3.29v-8.22a3.3 3.3 0 0 1 3.29-3.29h45.23a3.29 3.29 0 0 1 3.29 3.29v8.22a3.29 3.29 0 0 1-3.29 3.29zM5.08 58.7a1.65 1.65 0 0 0-1.64 1.65v8.22a1.65 1.65 0 0 0 1.64 1.65h45.23A1.65 1.65 0 0 0 52 68.57v-8.22a1.65 1.65 0 0 0-1.65-1.65z"/><circle class="asr-cls-3" cx="47.02" cy="38.15" r="2.47"/><circle class="asr-cls-3" cx="47.02" cy="51.3" r="2.47"/><circle class="asr-cls-3" cx="47.02" cy="64.46" r="2.47"/><path class="asr-cls-3" d="M28.93 36.5h11.51v2.47H28.93zM28.93 49.66h11.51v2.47H28.93zM28.93 62.82h11.51v2.47H28.93zM7.55 34.86h3.29v6.58H7.55zM7.55 48.01h3.29v6.58H7.55zM7.55 61.17h3.29v6.58H7.55zM12.48 34.86h3.29v6.58h-3.29zM12.48 48.01h3.29v6.58h-3.29zM12.48 61.17h3.29v6.58h-3.29zM17.42 34.86h3.29v6.58h-3.29zM17.42 48.01h3.29v6.58h-3.29zM17.42 61.17h3.29v6.58h-3.29z"/><path class="asr-cls-2" d="M67 47.26a2.47 2.47 0 1 1 2.47-2.47A2.47 2.47 0 0 1 67 47.26z"/><path class="asr-cls-3" d="M135.54 20.26a1.68 1.68 0 0 0-1.31-1.38c-2.64-.62-3.3-2.14-3.42-3.83a20.57 20.57 0 0 0-5.43 0c-.11 1.69-.78 3.21-3.42 3.83a1.68 1.68 0 0 0-1.31 1.38l-.51 3.53a2 2 0 0 0 2 2.36h11.9a2 2 0 0 0 2-2.36zm-7.44 3.32a2.57 2.57 0 1 1 2.59-2.58 2.59 2.59 0 0 1-2.59 2.58zm10.2-9.74c0-1.54-3.94-4.1-10.2-4.1s-10.19 2.56-10.21 4.1 0 3.54 2.6 3.21c3-.39 2.83-1.44 2.83-3 0-1 2.45-1.3 4.78-1.3s4.77.25 4.77 1.3c0 1.51-.18 2.56 2.83 3 2.58.33 2.63-1.67 2.6-3.21z"/><path d="M135.8 40.27c-1.69-3.93-4.41-6.92-5.78-6.36-2.34 1 1.39 5.51-10.07 10.16-1 .41-1.25 2-.83 3s1.77 1.92 2.76 1.52c.17-.07.8-.27.8-.27.7 1 1.44.38 1.71 1s1 2.31 1.23 2.84.77 1 1.15.89l2.18-.83a.73.73 0 0 0 .47-1c-.16-.38-.84-.49-1-.93s-.82-1.85-1-2.3c-.25-.6.27-1.1 1-1.18 5.22-.54 6.2 2.68 8 2 1.34-.63 1.07-4.61-.62-8.54zm-.59 6.37c-.31.13-2.36-1.49-3.67-4.55s-1.15-5.84-.84-6S133 38 134.32 41s1.19 5.52.89 5.64z" fill="#4177bc"/><path class="asr-cls-5" d="M50.38 23.07v1.77c0 .35-.17.48-.51.48H36.46c-.66 0-.73-.07-.73-.71v-.87c0-.64.11-.71.75-.71h13.38z"/><path class="asr-cls-2" d="M38 23H50.38v1.77c0 .35-.16.48-.49.48H36.46c-.66 0-.73-.07-.73-.71v-.87c0-.64.11-.71.75-.71H38m0-1.65h-1.51a2.12 2.12 0 0 0-2.39 2.24v.99A2.1 2.1 0 0 0 36.46 27h13.41A2 2 0 0 0 52 24.81v-3.28l-1.54-.1H38z"/><path class="asr-cls-5" d="M54.46 15.58h-2a1.29 1.29 0 0 1-.75-.33.55.55 0 0 1 .29-.91 1.82 1.82 0 0 1 .57-.07h3.86a2.48 2.48 0 0 1 .38 0c.35.06.6.24.6.63a.61.61 0 0 1-.57.65 2.59 2.59 0 0 1-.48 0zM42.41 3.42V1.3c0-.52.28-.8.72-.8s.58.36.58.82v4.24a.69.69 0 0 1-.71.79c-.33 0-.57-.31-.57-.76V3.42zM31.48 15.58h-2c-.52 0-.83-.28-.81-.69s.29-.64.79-.65h4.34a.65.65 0 0 1 .67.63c0 .41-.29.6-.61.63-.59.06-1.19.05-1.79.06zM37.25 8.48c-.16.18-.26.41-.39.43a1.15 1.15 0 0 1-.79-.09c-.73-.67-1.42-1.39-2.12-2.09-.35-.35-.71-.7-1.05-1.06a.59.59 0 0 1 0-.93c.33-.31.61-.3 1 0l3 3a3.6 3.6 0 0 1 .35.74zM53.48 5.25a2.71 2.71 0 0 1-.29.45c-.63.64-1.27 1.26-1.91 1.89l-1.2 1.22a.62.62 0 0 1-.86.11.6.6 0 0 1-.11-.92c.59-.65 1.22-1.27 1.84-1.9.42-.42.83-.85 1.28-1.24.19-.16.53-.34.69-.27s.37.41.56.66zM49.57 15.6a6.38 6.38 0 0 0-2-4.69 6.21 6.21 0 0 0-2.11-1.31h-.14L45 9.44a6.13 6.13 0 0 0-1.65-.28h-.47a6.07 6.07 0 0 0-1.65.28l-.32.11h-.14a6.21 6.21 0 0 0-2.06 1.31 6.38 6.38 0 0 0-2.05 4.69v5.51c0 .34.07.5.33.55h12.24c.25-.05.33-.21.32-.55 0-1.79 0-3.62.02-5.46z"/><path class="asr-cls-2" d="M43.26 9.16h.09a6.13 6.13 0 0 1 1.65.28l.32.11h.14a6.21 6.21 0 0 1 2.06 1.31 6.38 6.38 0 0 1 2 4.69v5.51c0 .34-.07.5-.32.55H37c-.26-.05-.33-.21-.33-.55v-5.51a6.38 6.38 0 0 1 2.05-4.69 6.21 6.21 0 0 1 2.05-1.26h.14l.32-.11a6.07 6.07 0 0 1 1.65-.28h.38m0-.83h-.09v.82-.86h-.31a7 7 0 0 0-1.86.31l-.3.11h-.05l-.12.05a6.83 6.83 0 0 0-2.31 1.47A7.12 7.12 0 0 0 36 14.05a6.32 6.32 0 0 0-.17 1.56v5.49a1.22 1.22 0 0 0 1 1.37h12.36a1 1 0 0 0 .21 0 1.21 1.21 0 0 0 1-1.36v-5.49a7 7 0 0 0-.18-1.62 7.13 7.13 0 0 0-2.14-3.73 6.9 6.9 0 0 0-2.33-1.48H45.6l-.32-.11a6.69 6.69 0 0 0-1.84-.31h-.13z"/><path class="asr-cls-2" d="M44.57 11.28h.11a4.84 4.84 0 0 1 1.58 1 4.91 4.91 0 0 1 1.47 2.55 4.74 4.74 0 0 1 .11 1.07v3.44h.82v-3.43a6 6 0 0 0-.14-1.26 5.72 5.72 0 0 0-1.7-3 5.58 5.58 0 0 0-1.82-1.1h-.16l-.25-.09a5.37 5.37 0 0 0-1.27-.23V11a5.06 5.06 0 0 1 1 .19z"/><path d="M110.75 45.61V44H86.5V25a7.41 7.41 0 0 1 7.4-7.4h15.63v-1.73H93.9a9.06 9.06 0 0 0-9.05 9.05V44H70.13a3.29 3.29 0 1 0 0 1.64h14.72v19a9.06 9.06 0 0 0 9.05 9h15.63v-1.57H93.9a7.41 7.41 0 0 1-7.4-7.41v-19zM67 46.44a1.65 1.65 0 1 1 1.65-1.65A1.65 1.65 0 0 1 67 46.44z" fill="#465b65"/><circle id="stackstorm-launches-h" class="asr-cls-7" cx="108.29" cy="44.79" r="2.88"/><circle id="stackstorm-launches-h-2" data-name="stackstorm-launches-h" class="asr-cls-7" cx="108.29" cy="16.74" r="2.88"/><circle id="stackstorm-launches-h-3" data-name="stackstorm-launches-h" class="asr-cls-7" cx="108.29" cy="72.87" r="2.88"/></svg>