<svg id="automated-remediation" data-name="automated-remediation" xmlns="http://www.w3.org/2000/svg" viewBox="0 0 227 85"><defs><style>.ar-cls-1{fill:#565656}.ar-cls-3{fill:#fff}</style></defs><path class="ar-cls-1" d="M68 50.33H13a4 4 0 0 1-4-4v-10a4 4 0 0 1 4-4h55a4 4 0 0 1 4 4v10a4 4 0 0 1-4 4zm-55-16a2 2 0 0 0-2 2v10a2 2 0 0 0 2 2h55a2 2 0 0 0 2-2v-10a2 2 0 0 0-2-2z"/><path class="ar-cls-1" d="M71.38 34.33h-62l9.25-15.53a3 3 0 0 1 2.58-1.47h38.92a3 3 0 0 1 2.62 1.54zm-58.48-2H68l-7-12.48a1 1 0 0 0-.87-.52H21.21a1 1 0 0 0-.86.49zM68 66.33H13a4 4 0 0 1-4-4v-10a4 4 0 0 1 4-4h55a4 4 0 0 1 4 4v10a4 4 0 0 1-4 4zm-55-16a2 2 0 0 0-2 2v10a2 2 0 0 0 2 2h55a2 2 0 0 0 2-2v-10a2 2 0 0 0-2-2z"/><path class="ar-cls-1" d="M68 82.33H13a4 4 0 0 1-4-4v-10a4 4 0 0 1 4-4h55a4 4 0 0 1 4 4v10a4 4 0 0 1-4 4zm-55-16a2 2 0 0 0-2 2v10a2 2 0 0 0 2 2h55a2 2 0 0 0 2-2v-10a2 2 0 0 0-2-2z"/><circle class="ar-cls-1" cx="64" cy="41.33" r="3"/><circle class="ar-cls-1" cx="64" cy="57.33" r="3"/><circle class="ar-cls-1" cx="64" cy="73.33" r="3"/><path class="ar-cls-1" d="M42 39.33h14v3H42zM42 55.33h14v3H42zM42 71.33h14v3H42zM16 37.33h4v8h-4zM16 53.33h4v8h-4zM16 69.33h4v8h-4zM22 37.33h4v8h-4zM22 53.33h4v8h-4zM22 69.33h4v8h-4zM28 37.33h4v8h-4zM28 53.33h4v8h-4zM28 69.33h4v8h-4zM225.61 46.33v-10a4 4 0 0 0-.88-2.47l-8.37-15a3 3 0 0 0-2.62-1.54h-38.92a3 3 0 0 0-2.58 1.47L163 34.33h.17a3.91 3.91 0 0 0-.56 2v10a4 4 0 0 0 1.38 3 4 4 0 0 0-1.38 3v10a4 4 0 0 0 1.38 3 4 4 0 0 0-1.38 3v10a4 4 0 0 0 4 4h55a4 4 0 0 0 4-4v-10a4 4 0 0 0-1.38-3 4 4 0 0 0 1.38-3v-10a4 4 0 0 0-1.38-3 4 4 0 0 0 1.38-3zM174 19.82a1 1 0 0 1 .86-.49h38.92a1 1 0 0 1 .88.52l7 12.48h-55.15zm49.65 48.51v10a2 2 0 0 1-2 2h-55a2 2 0 0 1-2-2v-10a2 2 0 0 1 2-2h55a2 2 0 0 1 1.96 2zm0-16v10a2 2 0 0 1-2 2h-55a2 2 0 0 1-2-2v-10a2 2 0 0 1 2-2h55a2 2 0 0 1 1.96 2zm-57-4a2 2 0 0 1-2-2v-10a2 2 0 0 1 2-2h55a2 2 0 0 1 2 2v10a2 2 0 0 1-2 2z"/><circle class="ar-cls-1" cx="217.61" cy="41.33" r="3"/><circle class="ar-cls-1" cx="217.61" cy="57.33" r="3"/><circle class="ar-cls-1" cx="217.61" cy="73.33" r="3"/><path class="ar-cls-1" d="M195.61 39.33h14v3h-14zM195.61 55.33h14v3h-14zM195.61 71.33h14v3h-14zM169.61 37.33h4v8h-4zM169.61 53.33h4v8h-4zM169.61 69.33h4v8h-4zM175.61 37.33h4v8h-4zM175.61 53.33h4v8h-4zM175.61 69.33h4v8h-4zM181.61 37.33h4v8h-4zM181.61 53.33h4v8h-4zM181.61 69.33h4v8h-4z"/><path id="stackstorm-self-heals-d" d="M24.55 20.23L15.34 4.29C14.6 3 13.4 3 12.65 4.29L3.44 20.23c-1 1.72-.27 3.1 1.62 3.1h17.88c1.88 0 2.61-1.39 1.61-3.1zM14 20.59a.91.91 0 1 1 .85-.91.88.88 0 0 1-.85.91zm.85-4.59a.86.86 0 1 1-1.71 0v-5.45a.86.86 0 1 1 1.71 0z" fill="#ed1c24"/><path class="ar-cls-3" d="M22.94 25.33H5.06a4 4 0 0 1-3.59-1.84 4.23 4.23 0 0 1 .24-4.27l9.21-15.93a3.59 3.59 0 0 1 3.08-2 3.59 3.59 0 0 1 3.07 2L26 18.73l.29.49a4.2 4.2 0 0 1 .24 4.27 4 4 0 0 1-3.59 1.84zM14 3.33a1.67 1.67 0 0 0-1.35 1l-9.2 15.9a2.26 2.26 0 0 0-.24 2.26 2 2 0 0 0 1.85.84h17.88a2 2 0 0 0 1.85-.84 2.28 2.28 0 0 0-.24-2.26L15.34 4.29A1.65 1.65 0 0 0 14 3.33zm0 17.44a1.09 1.09 0 1 1 1.14-1.09A1.13 1.13 0 0 1 14 20.77zm0-2a.91.91 0 1 0 .85.91.89.89 0 0 0-.85-.91zM15.14 16h-2.29v-5.45h2.29z"/><path class="ar-cls-1" d="M225.61 46.33v-10a4 4 0 0 0-.88-2.47l-8.37-15a3 3 0 0 0-2.62-1.54h-38.92a3 3 0 0 0-2.58 1.47L163 34.33h.17a3.91 3.91 0 0 0-.56 2v10a4 4 0 0 0 1.38 3 4 4 0 0 0-1.38 3v10a4 4 0 0 0 1.38 3 4 4 0 0 0-1.38 3v10a4 4 0 0 0 4 4h55a4 4 0 0 0 4-4v-10a4 4 0 0 0-1.38-3 4 4 0 0 0 1.38-3v-10a4 4 0 0 0-1.38-3 4 4 0 0 0 1.38-3zM174 19.82a1 1 0 0 1 .86-.49h38.92a1 1 0 0 1 .88.52l7 12.48h-55.15zm49.65 48.51v10a2 2 0 0 1-2 2h-55a2 2 0 0 1-2-2v-10a2 2 0 0 1 2-2h55a2 2 0 0 1 1.96 2zm0-16v10a2 2 0 0 1-2 2h-55a2 2 0 0 1-2-2v-10a2 2 0 0 1 2-2h55a2 2 0 0 1 1.96 2zm-57-4a2 2 0 0 1-2-2v-10a2 2 0 0 1 2-2h55a2 2 0 0 1 2 2v10a2 2 0 0 1-2 2z"/><circle class="ar-cls-1" cx="217.61" cy="41.33" r="3"/><circle class="ar-cls-1" cx="217.61" cy="57.33" r="3"/><circle class="ar-cls-1" cx="217.61" cy="73.33" r="3"/><path class="ar-cls-1" d="M195.61 39.33h14v3h-14zM195.61 55.33h14v3h-14zM195.61 71.33h14v3h-14zM169.61 37.33h4v8h-4zM169.61 53.33h4v8h-4zM169.61 69.33h4v8h-4zM175.61 37.33h4v8h-4zM175.61 53.33h4v8h-4zM175.61 69.33h4v8h-4zM181.61 37.33h4v8h-4zM181.61 53.33h4v8h-4zM181.61 69.33h4v8h-4z"/><path id="stackstorm-self-heals-e" d="M150.54 33.23a3.54 3.54 0 0 0 0 5l4.17 4.17a3.55 3.55 0 0 0 5 0l5.84-5.84-9.18-9.17zm6.68-6.68l9.17 9.18 7.51-7.51-9.18-9.22zm23.36-10l-4.18-4.17a3.54 3.54 0 0 0-5 0l-5.84 5.84 9.17 9.18 5.85-5.84a3.55 3.55 0 0 0 0-5.02z" fill="#0ea94e"/><path class="ar-cls-3" d="M157.21 45.44a5.5 5.5 0 0 1-3.91-1.62l-4.17-4.17a5.53 5.53 0 0 1 0-7.84l13.6-13.6 2-2L170 11a5.54 5.54 0 0 1 7.84 0l4.16 4.13a5.54 5.54 0 0 1 0 7.87l-13.6 13.6-2 2-5.26 5.26a5.54 5.54 0 0 1-3.93 1.58zm-7.38-12.92l.71.71a3.52 3.52 0 0 0 0 5l4.17 4.17a3.62 3.62 0 0 0 5 0l5.29-5.26-9.2-9.14-5.26 5.25zm8-6.55l9.17 9.18 6.35-6.35-9.18-9.18zm8.34-8.34l9.17 9.18 5.26-5.26a3.55 3.55 0 0 0 0-5l.7-.71-.7.71-4.18-4.17a3.54 3.54 0 0 0-5 0z"/><path id="stackstorm-launches-c" class="ar-cls-3" d="M93.59 52.69a4 4 0 1 0-4-4 4 4 0 0 0 4 4z"/><path d="M145.63 48l-6-6a1 1 0 0 0-1.41 1.41l4.29 4.3H97.45a4 4 0 1 0 0 2h45.06L138.22 54a1 1 0 0 0 .71 1.71 1 1 0 0 0 .7-.3l6-6a1 1 0 0 0 0-1.41zm-52 2.71a2 2 0 1 1 2-2 2 2 0 0 1-2.04 1.98z" fill="#465b65"/></svg>