<svg id="chatops-optimization" data-name="chatops-optimization" xmlns="http://www.w3.org/2000/svg" viewBox="0 0 227 85"><defs><style>.co-cls-2{fill:#4177bc}</style></defs><path d="M53.66 26.72L27.74 48 1.82 26.72V26A5.22 5.22 0 0 1 7 20.74h41.48A5.2 5.2 0 0 1 53.66 26zm0 5.32v21.27L40.39 42.94zm-.12 26.48a5.2 5.2 0 0 1-5.06 4.09H7a5.2 5.2 0 0 1-5.06-4.09L18.33 45.6l9.41 7.71 9.41-7.71zM1.82 53.31V32l13.27 10.9z" fill="#565656"/><path class="co-cls-2" d="M174.29 50.32v-22h-13.62a7.16 7.16 0 0 0-7.17 7.11v21.29a7.16 7.16 0 0 0 7.17 7.11h3.58V74.5L175 63.83h17.92a7.16 7.16 0 0 0 7.17-7.11v-6.47a3.36 3.36 0 0 1-.71.08z"/><path d="M218 10.5h-32.24a7.16 7.16 0 0 0-7.17 7.11v28.45h25.09l10.75 10.66V46.06H218a7.17 7.17 0 0 0 7.17-7.12V17.61A7.16 7.16 0 0 0 218 10.5z" fill="#0ea94e"/><path class="co-cls-2" d="M139.86 40.08a3.84 3.84 0 0 0-3.6 2.56h-15.95l-7.78 16.62-9.73-40.92-11.68 24.44H80.79a3.81 3.81 0 1 0-.08 2.56h12L102 26l9.74 41 10.2-21.8h14.32a3.84 3.84 0 1 0 3.6-5.12z"/></svg>