<svg id="continuous-deployment" data-name="continuous-deployment" xmlns="http://www.w3.org/2000/svg" viewBox="0 0 227 85"><defs><style>.cd-cls-1{fill:#010101}.cd-cls-5{fill:#565656}.cd-cls-6{fill:#fff}</style></defs><path class="cd-cls-1" d="M58.47 34.56h1.3v-14h-2.05c-.44-7.27-4.73-13-9.95-13s-9.52 5.73-10 13V34.3c-5.4 2-9 5.64-9 9.76 0 6.36 8.5 11.5 19 11.5s19-5.14 19-11.5c0-3.94-3.29-7.42-8.3-9.5zm-8.3 0a4.14 4.14 0 0 1-2.4 1 4.16 4.16 0 0 1-2.41-1zm-2.4-25c4.14 0 7.55 4.84 8 11H39.81c.4-6.16 3.82-11 7.96-11zm0 30.67c-4 0-7.31-1.72-7.31-3.83a2.56 2.56 0 0 1 .89-1.84h1.17c1.61 1.85 3.46 3 5.25 3s3.63-1.15 5.25-3h1.17a2.59 2.59 0 0 1 .88 1.84c0 2.11-3.27 3.83-7.3 3.83z"/><path d="M47.77 36.56c4 0 9-7.46 9-14.77s-4-13.23-9-13.23-9 5.93-9 13.23 5 14.77 9 14.77z" fill="#e5e8e9"/><path class="cd-cls-1" d="M55.17 22.92c1.62 0 3.37 1 3.82.46.94-1.16.76-2.75.76-4.24 0-6.39-4.92-11.58-11-11.58s-11 5.19-11 11.58a11.85 11.85 0 0 0 1.16 5.17c.93 2 4.11-8.21 5.88-7.08s8.3 5.69 10.38 5.69z"/><path id="stackstorm-launches-d" d="M24.77 42.56h46a3 3 0 0 1 3 3v.3l-2.41 24a3 3 0 0 1-3 2.7H26.92a3 3 0 0 1-3-2.73l-2.15-24a3 3 0 0 1 2.72-3.25z" fill="#bec5c9"/><path d="M68.36 72.56H26.92a3 3 0 0 1-3-2.73l-2.15-24a3 3 0 0 1 2.72-3.25h46.27a3 3 0 0 1 3 3.31l-2.41 24a3 3 0 0 1-2.99 2.67zm-43.59-28h-.09a1 1 0 0 0-.68.35 1 1 0 0 0-.23.73l2.15 24a1 1 0 0 0 1 .91h41.44a1 1 0 0 0 1-.9l2.41-24a1 1 0 0 0-1-1.1z" fill="#f3f3f3"/><path id="stackstorm-launches-e" class="cd-cls-5" d="M26.77 73.56h42v3h-42z"/><path class="cd-cls-6" d="M70.77 78.56h-46v-7h46zm-44-2h42v-3h-42z"/><path class="cd-cls-5" d="M180.23 20.09a25 25 0 1 0 25 25 25 25 0 0 0-25-25zm21.33 25a21.23 21.23 0 0 1-4.42 13 3.41 3.41 0 0 1-.83-4c.79-1.71 1-5.69.81-7.24s-1-5.28-3.16-5.31-3.68-.76-5-3.34c-2.69-5.39 5.05-6.42 2.36-9.4-.75-.84-4.64 3.44-5.21-2.27a3 3 0 0 1 .87-1.65 21.36 21.36 0 0 1 14.58 20.21zM177.3 24c-.51 1-1.85 1.4-2.67 2.15-1.78 1.61-2.55 1.38-3.5 2.93s-4.08 3.77-4.08 4.89 1.57 2.44 2.35 2.19a8.36 8.36 0 0 1 4.08.18c1.23.43 10.2.86 7.34 8.45-.91 2.41-4.88 2-5.94 6a31 31 0 0 0-.74 3.91c-.06 1.27.9 6-.32 6s-4.53-4.27-4.53-5.05-.85-3.48-.85-5.8-4-2.29-4-5.37c0-2.78 2.15-4.17 1.66-5.51s-4.23-1.37-5.8-1.53a21.39 21.39 0 0 1 17-13.44zm-3.77 41.35c1.28-.68 1.41-1.56 2.57-1.6a23.44 23.44 0 0 0 3.91-.85c1.32-.29 3.7-1.64 5.79-1.81 1.77-.14 5.25.09 6.19 1.8a21.31 21.31 0 0 1-18.46 2.46z"/><path id="stackstorm-launches-c" class="cd-cls-6" d="M85.36 48.67a4 4 0 1 0-4-4 4 4 0 0 0 4 4z"/><path id="stackstorm-launches-c-2" data-name="stackstorm-launches-c" class="cd-cls-6" d="M109.86 48.67a4 4 0 1 0-4-4 4 4 0 0 0 4 4z"/><path d="M136.4 44l-6-6a1 1 0 0 0-1.4 0 1 1 0 0 0 0 1.42l4.29 4.29h-19.57a4 4 0 0 0-7.71 0H89.22a4 4 0 1 0 0 2H106a4 4 0 0 0 3.2 2.93v6.46c0 4.31-3.67 7.69-8.35 7.69H87.52v2h13.34c5.59 0 10-4 10.33-9.1V48.5H111a4 4 0 0 0 2.77-2.83h19.56L129 50a1 1 0 0 0 1.41 1.42l6-6a1 1 0 0 0-.01-1.42zm-51 2.71a2 2 0 1 1 2-2 2 2 0 0 1-2.04 1.96zm24.5 0a2 2 0 1 1 2-2 2 2 0 0 1-2.04 1.96z" fill="#465b65"/><circle id="stackstorm-launches-h" cx="85.36" cy="63.73" r="3.5" fill="#0ea94e"/><path class="cd-cls-6" d="M85.36 69.22a5.5 5.5 0 1 1 5.5-5.5 5.5 5.5 0 0 1-5.5 5.5zm0-9a3.5 3.5 0 1 0 3.5 3.5 3.51 3.51 0 0 0-3.5-3.5z"/><path d="M136.54 20.2l-3.06 2.58a32.93 32.93 0 0 1 3 40.67l3.15 2.46a36.9 36.9 0 0 0-3.07-45.71z" opacity=".64" fill="#979797"/><path d="M146.06 12.19L143 14.76a45.34 45.34 0 0 1 2.76 56l3.15 2.47a49.32 49.32 0 0 0-2.85-61z" style="isolation:isolate" opacity=".7" fill="#979797"/><path d="M155.62 4.13l-3.06 2.58a56.36 56.36 0 0 1 3.15 71.78l3.15 2.51a60.35 60.35 0 0 0-3.24-76.82z" style="isolation:isolate" opacity=".5" fill="#979797"/></svg>