<svg xmlns="http://www.w3.org/2000/svg" viewBox="0 0 789.5 857"><circle opacity=".2" cx="442.6" cy="161.8" r="19"/><circle opacity=".2" cx="423.5" cy="339.3" r="19"/><circle opacity=".2" cx="305.6" cy="13.7" r="13.2"/><circle opacity=".2" cx="529.5" cy="245.7" r="19"/><g opacity=".2"><circle cx="574.5" cy="324.3" r="15"/><path d="M574.5 351.8c-15.1 0-27.5-12.3-27.5-27.5 0-15.1 12.3-27.5 27.5-27.5s27.5 12.3 27.5 27.5c0 15.1-12.4 27.5-27.5 27.5zm0-51.9c-13.4 0-24.4 10.9-24.4 24.4s10.9 24.4 24.4 24.4 24.4-10.9 24.4-24.4-11-24.4-24.4-24.4z"/></g><g opacity=".2"><circle cx="242.9" cy="226.6" r="34.5"/><path d="M242.9 287.6c-33.6 0-61-27.4-61-61s27.4-61 61-61 61 27.4 61 61-27.4 61-61 61zm0-118.9c-31.9 0-57.9 26-57.9 57.9s26 57.9 57.9 57.9 57.9-26 57.9-57.9-26-57.9-57.9-57.9z"/></g><circle opacity=".2" cx="410.4" cy="485.9" r="19"/><circle opacity=".2" cx="505.4" cy="19" r="19"/><g opacity=".2"><path d="M289.9 265.2l116.8 65M406.4 330.8l-116.9-65 .7-1.3 116.9 65z"/></g><path d="M302.036 233.7l.496-1.522 247.493 80.615-.495 1.522zM409.719 466.79l13.04-108.623 1.589.19-13.04 108.624zM276.2 614.9l-1-1.1 121.7-114.4 1 1.1zM296.232 199.963l129.642-33.488.4 1.549-129.642 33.488zM301.652 219.22l.153-1.594 210.15 20.104-.152 1.593zM257.124 168.786l47.745-142.2 1.517.509-47.745 142.2zM283.329 182.968L490.467 31.012l.947 1.29-207.139 151.956z" opacity=".2"/><ellipse transform="rotate(-69.164 775.116 544.998)" opacity=".15" cx="775.1" cy="545" rx="12.3" ry="12.2"/><path opacity=".15" d="M776.7 692.4c-4-2.4-5.4-7.6-3-11.6 2.4-4 7.6-5.4 11.6-3 4 2.4 5.4 7.6 3 11.6-2.4 4-7.6 5.4-11.6 3z"/><ellipse transform="rotate(-86.368 517.15 539.088) scale(1.00001)" opacity=".15" cx="517.1" cy="539.1" rx="12.3" ry="12.2"/><g opacity=".15"><circle cx="606" cy="425.6" r="9.7"/><path d="M606 443.3c-3.1 0-6.1-.8-9-2.5-4.1-2.4-7-6.2-8.1-10.8-1.2-4.6-.5-9.3 1.9-13.4s6.2-7 10.8-8.1c4.6-1.2 9.3-.5 13.4 1.9s7 6.2 8.1 10.8c1.2 4.6.5 9.3-1.9 13.4-3.3 5.6-9.2 8.7-15.2 8.7zm0-33.3c-1.3 0-2.6.2-3.9.5-4.1 1-7.5 3.6-9.6 7.2-2.1 3.6-2.7 7.8-1.7 11.9 1 4.1 3.6 7.5 7.2 9.6 7.4 4.4 17.1 1.9 21.5-5.5 2.1-3.6 2.7-7.8 1.7-11.9-1-4.1-3.6-7.5-7.2-9.6-2.5-1.5-5.2-2.2-8-2.2z"/></g><g opacity=".15"><ellipse transform="rotate(-37.292 639.873 609.836)" cx="639.9" cy="609.9" rx="22.2" ry="22.2"/><path d="M639.8 649.1c-6.9 0-13.8-1.9-19.9-5.5-9-5.3-15.4-13.9-18.1-24-2.6-10.2-1.1-20.7 4.2-29.8 5.3-9 13.9-15.4 24-18.1 10.2-2.6 20.7-1.1 29.8 4.2 9 5.3 15.4 13.9 18.1 24 2.6 10.2 1.1 20.7-4.2 29.8-5.3 9-13.9 15.4-24 18.1-3.3.9-6.6 1.3-9.9 1.3zm.1-76.5c-3.1 0-6.3.4-9.4 1.2-9.6 2.5-17.7 8.6-22.8 17.1-5.1 8.6-6.5 18.6-4 28.2 2.5 9.6 8.6 17.7 17.1 22.8 8.6 5.1 18.6 6.5 28.2 4 9.6-2.5 17.7-8.6 22.8-17.1 5.1-8.6 6.5-18.6 4-28.2-2.5-9.6-8.6-17.7-17.1-22.8-5.7-3.5-12.2-5.2-18.8-5.2z"/></g><ellipse transform="rotate(-46.354 454.095 674.142)" opacity=".1" cx="454.1" cy="674.1" rx="12.3" ry="12.2"/><ellipse transform="matrix(.06301 -.998 .998 .06301 -226.038 1407.794)" opacity=".15" cx="636.7" cy="824.3" rx="12.3" ry="12.2"/><path d="M527.489 545.805l.494-.87 79.271 45.1-.494.868zM465.821 670.803l136.67-52.754.36.933-136.67 52.754zM505.2 536l-78.6-40.2.4-.8 78.6 40.2zM607.148 435.377l.986-.168 23.444 137.308-.986.168zM676.186 598.108l89.141-46.628.464.886-89.142 46.628zM674.316 626.922l.48-.877 99.09 54.308-.48.877zM636.863 812.908l6.445-165.067.999.039-6.444 165.067z" opacity=".15"/><ellipse transform="rotate(-86.368 125.24 570.876) scale(1.00001)" opacity=".1" cx="125.2" cy="570.9" rx="12.3" ry="12.2"/><g opacity=".1"><circle cx="214.1" cy="457.4" r="9.7"/><path d="M214.1 475.1c-3.1 0-6.1-.8-9-2.5-4.1-2.4-7-6.2-8.1-10.8-1.2-4.6-.5-9.3 1.9-13.4s6.2-7 10.8-8.1c4.6-1.2 9.3-.5 13.4 1.9s7 6.2 8.1 10.8c1.2 4.6.5 9.3-1.9 13.4-3.3 5.6-9.2 8.7-15.2 8.7zm0-33.4c-1.3 0-2.6.2-3.9.5-4.1 1-7.5 3.6-9.6 7.2-2.1 3.6-2.7 7.8-1.7 11.9 1 4.1 3.6 7.5 7.2 9.6 7.4 4.4 17.1 1.9 21.5-5.5 2.1-3.6 2.7-7.8 1.7-11.9-1-4.1-3.6-7.5-7.2-9.6-2.5-1.4-5.2-2.2-8-2.2z"/></g><g opacity=".1"><ellipse transform="rotate(-37.292 247.974 641.626)" cx="248" cy="641.6" rx="22.2" ry="22.2"/><path d="M247.9 680.9c-6.9 0-13.8-1.9-19.9-5.5-9-5.3-15.4-13.9-18.1-24-2.6-10.2-1.1-20.7 4.2-29.8 5.3-9 13.9-15.4 24-18.1 10.2-2.6 20.7-1.1 29.8 4.2 9 5.3 15.4 13.9 18.1 24 2.6 10.2 1.1 20.7-4.2 29.8-5.3 9-13.9 15.4-24 18.1-3.3.9-6.6 1.3-9.9 1.3zm.1-76.5c-3.1 0-6.3.4-9.4 1.2-9.6 2.5-17.7 8.6-22.8 17.1-5.1 8.6-6.5 18.6-4 28.2 2.5 9.6 8.6 17.7 17.1 22.8 8.6 5.1 18.6 6.5 28.2 4 9.6-2.5 17.7-8.6 22.8-17.1 5.1-8.6 6.5-18.6 4-28.2-2.5-9.6-8.6-17.7-17.1-22.8-5.7-3.5-12.2-5.2-18.8-5.2z"/></g><g opacity=".1"><circle cx="17.7" cy="516.9" r="9.7"/><path d="M17.7 534.5c-3.1 0-6.1-.8-9-2.5-8.4-5-11.2-15.8-6.2-24.2 2.4-4.1 6.2-7 10.8-8.1 4.6-1.2 9.3-.5 13.4 1.9 8.4 5 11.2 15.8 6.2 24.2-3.3 5.6-9.2 8.7-15.2 8.7zm-8-4.1c7.4 4.4 17.1 1.9 21.5-5.5 4.4-7.4 1.9-17.1-5.5-21.5-3.6-2.1-7.8-2.7-11.9-1.7-4.1 1-7.5 3.6-9.6 7.2-4.4 7.4-1.9 17.1 5.5 21.5z"/></g><ellipse transform="rotate(-46.354 62.17 705.931)" opacity=".1" cx="62.2" cy="705.9" rx="12.3" ry="12.2"/><ellipse transform="scale(.99999) rotate(-86.387 244.15 844.41)" opacity=".1" cx="244.1" cy="844.4" rx="12.3" ry="12.2"/><path d="M135.575 577.59l.495-.869 79.271 45.099-.494.869zM73.925 702.587l136.67-52.754.36.933-136.67 52.754zM31.81 525.766l.46-.89 81.493 42.045-.459.889zM215.261 467.163l.986-.168 23.444 137.308-.986.168zM442.4 676.4l-160-19.7.8-.3 160 19.6zM246 832.4l-1-.1 6.5-152.6h1z" opacity=".1"/></svg>