<svg xmlns="http://www.w3.org/2000/svg" viewBox="0 0 763.3 759.3"><circle opacity=".15" cx="352.8" cy="160.7" r="19"/><circle opacity=".15" cx="354.6" cy="268.2" r="19"/><circle opacity=".2" cx="678.2" cy="517.8" r="13.2"/><g opacity=".2"><ellipse transform="rotate(-36.707 270.8 490.902)" cx="270.8" cy="490.9" rx="15" ry="15"/><path d="M254.4 468.8c12.1-9.1 29.4-6.5 38.4 5.6 9.1 12.1 6.5 29.4-5.6 38.4-12.1 9.1-29.4 6.5-38.4-5.6-9.1-12-6.6-29.3 5.6-38.4zm1.8 2.5c-10.8 8-13 23.3-5 34.1s23.3 13 34.1 5 13-23.3 5-34.1-23.3-13-34.1-5z"/></g><g opacity=".2"><ellipse transform="rotate(-36.707 547.31 698.4)" cx="547.3" cy="698.4" rx="34.5" ry="34.5"/><path d="M510.8 649.5c27-20.1 65.3-14.5 85.4 12.4 20.1 27 14.5 65.3-12.4 85.4-27 20.1-65.3 14.5-85.4-12.4-20.1-27-14.5-65.3 12.4-85.4zm1.9 2.4c-25.6 19.1-30.9 55.4-11.8 81 19.1 25.6 55.4 30.9 81 11.8 25.6-19.1 30.9-55.4 11.8-81-19.1-25.5-55.4-30.8-81-11.8z"/></g><circle opacity=".2" cx="556.2" cy="364.2" r="19"/><path d="M293.587 504.89l.924-1.307 212.56 150.22-.923 1.306zM583.76 651.481l85.455-123.27 1.315.912-85.455 123.27zM554.622 382.921l1.6-.012 1.99 256.9-1.6.012z" opacity=".2"/><ellipse transform="rotate(-50.852 12.251 251.236)" opacity=".15" cx="12.3" cy="251.2" rx="12.2" ry="12.3"/><path opacity=".15" d="M84.3 445.3c2.3-4.1.9-9.3-3.2-11.6-4.1-2.3-9.3-.9-11.6 3.2-2.3 4.1-.9 9.3 3.2 11.6 4.1 2.4 9.3.9 11.6-3.2z"/><ellipse transform="rotate(-33.647 232.293 182.779)" opacity=".15" cx="232.3" cy="182.8" rx="12.2" ry="12.3"/><g opacity=".15"><circle cx="98.6" cy="129" r="9.7"/><path d="M89.9 144.4c-4.1-2.3-7.1-6.1-8.4-10.7-1.3-4.6-.7-9.3 1.6-13.4s6.1-7.1 10.7-8.4c4.6-1.3 9.3-.7 13.4 1.6s7.1 6.1 8.4 10.7c1.3 4.6.7 9.3-1.6 13.4-1.6 2.8-3.9 5.1-6.5 6.6-5.2 3.1-11.9 3.4-17.6.2zM85 121.3c-2.1 3.7-2.6 7.9-1.4 11.9 1.1 4 3.8 7.4 7.4 9.5 7.5 4.2 17.1 1.6 21.4-6 2.1-3.7 2.6-7.9 1.4-11.9-1.1-4-3.8-7.4-7.4-9.5-3.7-2.1-7.9-2.6-11.9-1.4-1.3.4-2.5.9-3.7 1.5-2.4 1.4-4.4 3.4-5.8 5.9z"/></g><g opacity=".15"><ellipse transform="rotate(-82.721 161.445 305.475)" cx="161.4" cy="305.5" rx="22.2" ry="22.2"/><path d="M172 343.3c-10.1 2.8-20.7 1.5-29.8-3.6-9.1-5.2-15.7-13.6-18.5-23.7-2.8-10.1-1.5-20.7 3.6-29.8 5.2-9.1 13.6-15.7 23.7-18.5 10.1-2.8 20.7-1.5 29.8 3.6 9.1 5.2 15.7 13.6 18.5 23.7 2.8 10.1 1.5 20.7-3.6 29.8-3.5 6.2-8.5 11.2-14.5 14.7-2.9 1.6-6 2.9-9.2 3.8zm-43-56.1c-4.9 8.7-6.1 18.7-3.4 28.3 2.7 9.6 8.9 17.6 17.6 22.5 8.7 4.9 18.7 6.1 28.3 3.4 9.6-2.7 17.6-8.9 22.5-17.6 4.9-8.7 6.1-18.7 3.4-28.3-2.7-9.6-8.9-17.6-17.6-22.5-8.7-4.9-18.7-6.1-28.3-3.4-3.1.9-6 2.1-8.7 3.6-5.8 3.3-10.5 8.1-13.8 14z"/></g><path d="M179.804 271.864l46.084-78.696.863.505-46.084 78.696zM336 272.9l-.2-.9-137.9 21.8.2.9zM244.118 180.275l90.471-14.938.163.987-90.471 14.938zM101.545 138.416l.938-.348 48.38 130.622-.939.347zM124.4 294.2l-.4-1.5-101.9-37.1.5 1.5zM80.672 433.474l58.636-96.592.855.518-58.636 96.593zM263.7 477.9l.8-.5-87.3-137.1-.9.5z" opacity=".15"/><ellipse transform="rotate(-33.647 628.854 118.273)" opacity=".1" cx="628.9" cy="118.3" rx="12.2" ry="12.3"/><g opacity=".1"><circle cx="495.2" cy="64.5" r="9.7"/><path d="M486.5 79.9c-4.1-2.3-7.1-6.1-8.4-10.7-1.3-4.6-.7-9.3 1.6-13.4s6.1-7.1 10.7-8.4c4.6-1.3 9.3-.7 13.4 1.6s7.1 6.1 8.4 10.7c1.3 4.6.7 9.3-1.6 13.4-1.6 2.8-3.9 5.1-6.5 6.6-5.2 3.1-11.9 3.4-17.6.2zm-4.9-23.1c-2.1 3.7-2.6 7.9-1.4 11.9 1.1 4 3.8 7.4 7.4 9.5 7.5 4.2 17.1 1.6 21.4-6 2.1-3.7 2.6-7.9 1.4-11.9-1.1-4-3.8-7.4-7.4-9.5-3.7-2.1-7.9-2.6-11.9-1.4-1.3.4-2.5.9-3.7 1.5-2.4 1.4-4.4 3.4-5.8 5.9z"/></g><g opacity=".1"><ellipse transform="rotate(-82.721 558.054 240.955)" cx="558" cy="240.9" rx="22.2" ry="22.2"/><path d="M568.6 278.8c-10.1 2.8-20.7 1.5-29.8-3.6-9.1-5.2-15.7-13.6-18.5-23.7-2.8-10.1-1.5-20.7 3.6-29.8 5.2-9.1 13.6-15.7 23.7-18.5 10.1-2.8 20.7-1.5 29.8 3.6 9.1 5.2 15.7 13.6 18.5 23.7 2.8 10.1 1.5 20.7-3.6 29.8-3.5 6.2-8.5 11.2-14.5 14.7-2.9 1.6-6 2.9-9.2 3.8zm-43-56.2c-4.9 8.7-6.1 18.7-3.4 28.3 2.7 9.6 8.9 17.6 17.6 22.5 8.7 4.9 18.7 6.1 28.3 3.4 9.6-2.7 17.6-8.9 22.5-17.6 4.9-8.7 6.1-18.7 3.4-28.3-2.7-9.6-8.9-17.6-17.6-22.5-8.7-4.9-18.7-6.1-28.3-3.4-3.1.9-6 2.1-8.7 3.6-5.8 3.4-10.5 8.2-13.8 14z"/></g><g opacity=".1"><circle cx="695" cy="17.7" r="9.7"/><path d="M686.3 33.1c-8.5-4.8-11.5-15.6-6.7-24.1 2.3-4.1 6.1-7.1 10.7-8.4 4.6-1.3 9.3-.7 13.4 1.6 8.5 4.8 11.5 15.6 6.7 24.1-1.6 2.8-3.9 5.1-6.5 6.6-5.3 3.1-11.9 3.4-17.6.2zm22.4-7.7c4.2-7.5 1.6-17.1-6-21.4-3.7-2.1-7.9-2.6-11.9-1.4-4 1.1-7.4 3.8-9.4 7.4-4.2 7.5-1.6 17.1 6 21.4 7.4 4.2 17 1.5 21.3-6z"/></g><ellipse transform="rotate(-73.656 751.084 203.627)" opacity=".1" cx="751.1" cy="203.6" rx="12.2" ry="12.3"/><ellipse transform="rotate(-33.627 661.754 415.54)" opacity=".1" cx="661.8" cy="415.6" rx="12.2" ry="12.3"/><path d="M576.407 207.363l46.084-78.697.863.506-46.084 78.696zM594.47 229.248l144.727-22.678.155.988-144.728 22.678zM636.868 109.146l49.537-77.166.841.54-49.536 77.166zM498.133 73.923l.937-.348 48.38 130.622-.938.347zM655.8 406.2l.8-.6-82.6-130-.8.6z" opacity=".1"/><circle opacity=".2" cx="254.3" cy="699.4" r="19"/><path opacity=".2" fill="none" stroke="#000" stroke-width="2" stroke-miterlimit="10" d="M272.3 700.4h214M361.3 284.4l165 356"/><path opacity=".1" fill="none" stroke="#000" stroke-width="2" stroke-miterlimit="10" d="M372.3 265.4l146-19"/></svg>