<svg id="containers" xmlns="http://www.w3.org/2000/svg" viewBox="0 0 561 72.3"><defs><style>.cls-1{fill:#e5e8e9}.cls-3{fill:#231f20}</style></defs><path id="container-l" class="cls-1" d="M262.44 72.3H0V0h262.44l17.73 36.15zM3 69.3h257.57l16.26-33.15L260.57 3H3z"/><path id="if" d="M30.6 34v9.33h-2.79V34zm.29-2.56a1.52 1.52 0 0 1-.14.63 1.82 1.82 0 0 1-.36.51 1.84 1.84 0 0 1-.55.35 1.65 1.65 0 0 1-.66.13 1.53 1.53 0 0 1-.64-.13 1.88 1.88 0 0 1-.53-.35 1.82 1.82 0 0 1-.36-.51 1.62 1.62 0 0 1 0-1.27 1.73 1.73 0 0 1 .36-.52 1.69 1.69 0 0 1 .53-.35 1.53 1.53 0 0 1 .64-.13 1.79 1.79 0 0 1 1.21.48 1.73 1.73 0 0 1 .36.52 1.53 1.53 0 0 1 .14.64zm2.36 11.89v-7.42l-.61-.12a1.27 1.27 0 0 1-.51-.23.54.54 0 0 1-.2-.45V34h1.32v-.53A4 4 0 0 1 33.5 32a3 3 0 0 1 .74-1.1 3.11 3.11 0 0 1 1.18-.71A4.49 4.49 0 0 1 37 30a4 4 0 0 1 .63.05 3.61 3.61 0 0 1 .6.13v1.35a.52.52 0 0 1-.07.24.44.44 0 0 1-.17.16.83.83 0 0 1-.22.08.91.91 0 0 1-.23 0 2.62 2.62 0 0 0-.66.07 1 1 0 0 0-.48.26 1.05 1.05 0 0 0-.29.48 2.37 2.37 0 0 0-.1.76V34h2.18v1.91H36v7.41z" fill="#d64827"/><g id="text-left"><path class="cls-3" d="M55 43.28a6.8 6.8 0 0 1-.24-.68 3.62 3.62 0 0 1-.14-.73 3.52 3.52 0 0 1-1 1.14 2.57 2.57 0 0 1-1.52.45 3.17 3.17 0 0 1-2.28-.76 2.74 2.74 0 0 1-.82-2.07 2.48 2.48 0 0 1 1-2.14 5.35 5.35 0 0 1 3.1-.75h1.41V37a1.5 1.5 0 0 0-.35-1.05 1.39 1.39 0 0 0-1-.37 1.37 1.37 0 0 0-1 .3 1.05 1.05 0 0 0-.34.82h-2.41v-.06a2.38 2.38 0 0 1 1-2.05 4.54 4.54 0 0 1 2.87-.86 4.18 4.18 0 0 1 2.73.85 3 3 0 0 1 1 2.44v3.87a8 8 0 0 0 .1 1.24 7.16 7.16 0 0 0 .32 1.16zm-2.32-1.69a2.17 2.17 0 0 0 1.19-.33 1.69 1.69 0 0 0 .7-.77v-1.32h-1.44a1.66 1.66 0 0 0-1.22.4 1.3 1.3 0 0 0-.42 1 1 1 0 0 0 .31.75 1.22 1.22 0 0 0 .85.27zM61.32 33.89l.11 1.35a3.41 3.41 0 0 1 1.15-1.12 3 3 0 0 1 1.54-.4 2.85 2.85 0 0 1 2.22.89 4.14 4.14 0 0 1 .79 2.8v5.87h-2.54v-5.87a1.87 1.87 0 0 0-.38-1.34 1.5 1.5 0 0 0-1.15-.4 1.87 1.87 0 0 0-.9.21 1.75 1.75 0 0 0-.67.57v6.83H59v-9.39zM77.6 43.46a4.25 4.25 0 0 1-3.24-1.3 4.66 4.66 0 0 1-1.21-3.31v-.34a5.18 5.18 0 0 1 1.14-3.45 4.31 4.31 0 0 1 6-.2 4.43 4.43 0 0 1 1 3.1v1.38h-5.52a2.38 2.38 0 0 0 .62 1.52 1.91 1.91 0 0 0 1.49.6 5 5 0 0 0 1.4-.17 6.38 6.38 0 0 0 1.21-.53l.69 1.56a4.79 4.79 0 0 1-1.5.78 6.43 6.43 0 0 1-2.08.36zm-.22-7.79a1.31 1.31 0 0 0-1.11.54 2.89 2.89 0 0 0-.51 1.41v.05h3.1v-.23a2 2 0 0 0-.37-1.29 1.36 1.36 0 0 0-1.11-.48zM86.11 39.78l.16.87h.06l.17-.87 1.5-5.89h2.65l-3.15 9.39h-2.42l-3.19-9.39h2.64zM95.81 43.46a4.25 4.25 0 0 1-3.24-1.3 4.66 4.66 0 0 1-1.21-3.31v-.34a5.14 5.14 0 0 1 1.15-3.45 4.29 4.29 0 0 1 6-.2 4.43 4.43 0 0 1 1 3.1v1.38H94a2.38 2.38 0 0 0 .62 1.52 1.91 1.91 0 0 0 1.49.6 5 5 0 0 0 1.4-.17 6.38 6.38 0 0 0 1.21-.53l.69 1.56a4.79 4.79 0 0 1-1.5.78 6.43 6.43 0 0 1-2.1.36zm-.22-7.79a1.31 1.31 0 0 0-1.11.54 2.79 2.79 0 0 0-.5 1.41v.05h3.11v-.23a2 2 0 0 0-.38-1.29 1.36 1.36 0 0 0-1.12-.48zM103.38 33.89l.11 1.35a3.41 3.41 0 0 1 1.15-1.12 3 3 0 0 1 1.54-.4 2.83 2.83 0 0 1 2.22.89 4.14 4.14 0 0 1 .8 2.8v5.87h-2.55v-5.87a1.87 1.87 0 0 0-.38-1.34 1.5 1.5 0 0 0-1.15-.4 1.87 1.87 0 0 0-.9.21 1.75 1.75 0 0 0-.67.57v6.83H101v-9.39zM114.1 31.6v2.29h1.57v1.78h-1.57v4.78a1.12 1.12 0 0 0 .22.78.78.78 0 0 0 .61.23 1.78 1.78 0 0 0 .34 0 2.46 2.46 0 0 0 .33-.07l.22 1.83a4.24 4.24 0 0 1-.74.19 4 4 0 0 1-.79.07 2.69 2.69 0 0 1-2-.72 3.16 3.16 0 0 1-.71-2.28v-4.81h-1.37v-1.78h1.37V31.6zM124.18 35.08a3.24 3.24 0 0 1 1.09-1 2.83 2.83 0 0 1 1.42-.36 2.89 2.89 0 0 1 2.3 1 4.53 4.53 0 0 1 .84 3v5.57h-2.54v-5.6a2.4 2.4 0 0 0-.38-1.55 1.41 1.41 0 0 0-1.15-.46 2.07 2.07 0 0 0-.92.19 1.7 1.7 0 0 0-.66.52v6.9h-2.53V29.75h2.53zM137.24 43.28a6.8 6.8 0 0 1-.24-.68 5.88 5.88 0 0 1-.14-.73 3.41 3.41 0 0 1-1 1.14 2.55 2.55 0 0 1-1.52.45 3.15 3.15 0 0 1-2.34-.76 2.74 2.74 0 0 1-.8-2.07 2.48 2.48 0 0 1 1.06-2.14 5.35 5.35 0 0 1 3.1-.75h1.42V37a1.45 1.45 0 0 0-.36-1.05 1.39 1.39 0 0 0-1.05-.37 1.37 1.37 0 0 0-.95.3 1 1 0 0 0-.33.82h-2.45v-.06a2.39 2.39 0 0 1 1-2.05 4.5 4.5 0 0 1 2.87-.86 4.18 4.18 0 0 1 2.73.85 3 3 0 0 1 1.12 2.42v3.87a6.92 6.92 0 0 0 .1 1.24 6.23 6.23 0 0 0 .31 1.16zm-2.31-1.69a2.14 2.14 0 0 0 1.18-.33 1.78 1.78 0 0 0 .71-.77v-1.32h-1.42a1.69 1.69 0 0 0-1.22.4 1.3 1.3 0 0 0-.42 1 1 1 0 0 0 .32.75 1.2 1.2 0 0 0 .85.27zM149.74 38.85a5.38 5.38 0 0 1-1 3.34 3.19 3.19 0 0 1-2.69 1.27 3 3 0 0 1-1.31-.27 2.72 2.72 0 0 1-1-.81v4.5h-2.53v-13h2.28l.21 1.12a3.11 3.11 0 0 1 1-1 2.75 2.75 0 0 1 1.37-.33 3.14 3.14 0 0 1 2.71 1.36 6.09 6.09 0 0 1 1 3.58zm-2.53-.2a4.46 4.46 0 0 0-.45-2.15 1.44 1.44 0 0 0-1.35-.83 1.84 1.84 0 0 0-1 .24 1.63 1.63 0 0 0-.64.66v4.12a1.51 1.51 0 0 0 .64.61 2.07 2.07 0 0 0 1 .21 1.47 1.47 0 0 0 1.35-.72 3.9 3.9 0 0 0 .43-2zM159.76 38.85a5.38 5.38 0 0 1-1 3.34 3.17 3.17 0 0 1-2.69 1.27 3 3 0 0 1-1.31-.27 2.72 2.72 0 0 1-1-.81v4.5h-2.46v-13h2.28l.15 1.11a3.11 3.11 0 0 1 1-1 2.72 2.72 0 0 1 1.37-.33 3.11 3.11 0 0 1 2.7 1.36 6.09 6.09 0 0 1 1 3.58zm-2.53-.2a4.58 4.58 0 0 0-.44-2.15 1.46 1.46 0 0 0-1.35-.83 1.87 1.87 0 0 0-1 .24 1.69 1.69 0 0 0-.64.66v4.12a1.56 1.56 0 0 0 .64.61 2.13 2.13 0 0 0 1 .21 1.45 1.45 0 0 0 1.35-.72 3.8 3.8 0 0 0 .43-2zM165.48 43.46a4.27 4.27 0 0 1-3.25-1.3 4.7 4.7 0 0 1-1.23-3.31v-.34a5.14 5.14 0 0 1 1.15-3.45 4.29 4.29 0 0 1 6-.2 4.43 4.43 0 0 1 1.05 3.1v1.38h-5.6a2.44 2.44 0 0 0 .62 1.52 1.94 1.94 0 0 0 1.5.6 4.92 4.92 0 0 0 1.39-.17 6.45 6.45 0 0 0 1.22-.53l.68 1.56a4.79 4.79 0 0 1-1.5.78 6.36 6.36 0 0 1-2.03.36zm-.23-7.79a1.31 1.31 0 0 0-1.11.54 2.79 2.79 0 0 0-.5 1.41v.05h3.1v-.23a2 2 0 0 0-.38-1.29 1.36 1.36 0 0 0-1.11-.48zM173 33.89l.11 1.35a3.44 3.44 0 0 1 1.16-1.12 2.94 2.94 0 0 1 1.53-.4 2.83 2.83 0 0 1 2.22.89 4.14 4.14 0 0 1 .8 2.8v5.87h-2.54v-5.87a1.92 1.92 0 0 0-.38-1.34 1.53 1.53 0 0 0-1.16-.4 1.93 1.93 0 0 0-.9.21 1.83 1.83 0 0 0-.67.57v6.83h-2.53v-9.39zM185.82 40.69a.89.89 0 0 0-.4-.72 4.09 4.09 0 0 0-1.5-.53 6 6 0 0 1-2.51-1 2.17 2.17 0 0 1-.84-1.81 2.57 2.57 0 0 1 1-2 4.1 4.1 0 0 1 2.72-.85 4.49 4.49 0 0 1 2.86.84 2.48 2.48 0 0 1 1 2.13v.05h-2.44a1.24 1.24 0 0 0-.36-.92 1.43 1.43 0 0 0-1.06-.36 1.42 1.42 0 0 0-1 .3.93.93 0 0 0-.35.75.85.85 0 0 0 .36.71 4.09 4.09 0 0 0 1.5.5 6 6 0 0 1 2.58 1 2.24 2.24 0 0 1 .84 1.85 2.47 2.47 0 0 1-1.09 2.07 4.71 4.71 0 0 1-2.86.8 4.37 4.37 0 0 1-3-1 2.66 2.66 0 0 1-1-2.16v-.06h2.32a1.31 1.31 0 0 0 .49 1.1 2.07 2.07 0 0 0 1.22.33 1.78 1.78 0 0 0 1.07-.27.9.9 0 0 0 .45-.75z"/></g><path id="container-r" class="cls-1" d="M561 72.3H273.16l16.69-36.15L273.16 0H561zm-283.16-3H558V3H277.84l15.31 33.15z"/><path id="then" d="M323.22 43.37a3.28 3.28 0 0 1-1.18-.19 2.3 2.3 0 0 1-1.38-1.41 3.29 3.29 0 0 1-.18-1.12v-4.83h-.79a.5.5 0 0 1-.37-.14.53.53 0 0 1-.15-.41v-1.08l1.48-.29.55-2.28a.55.55 0 0 1 .61-.43h1.46v2.73h2.31v1.9h-2.31v4.64a.84.84 0 0 0 .16.53.5.5 0 0 0 .45.22.65.65 0 0 0 .26 0 .75.75 0 0 0 .18-.07l.14-.07a.41.41 0 0 1 .16 0 .32.32 0 0 1 .2.06.73.73 0 0 1 .16.18l.85 1.32a3.78 3.78 0 0 1-1.22.61 4.63 4.63 0 0 1-1.39.13zm6.36-8.65a4.7 4.7 0 0 1 1.09-.7 3.41 3.41 0 0 1 1.41-.27 3.27 3.27 0 0 1 1.36.27 2.8 2.8 0 0 1 1 .74 3.19 3.19 0 0 1 .61 1.12 4.64 4.64 0 0 1 .21 1.42v5.93h-2.79V37.3a1.59 1.59 0 0 0-.32-1.07 1.13 1.13 0 0 0-.92-.38 2.08 2.08 0 0 0-.86.19 3.47 3.47 0 0 0-.78.53v6.66h-2.79V29.76h2.79zm13.28 2.72a2.3 2.3 0 0 0-.09-.64 1.69 1.69 0 0 0-.28-.57 1.47 1.47 0 0 0-.51-.4 1.75 1.75 0 0 0-.76-.15 1.66 1.66 0 0 0-1.24.45 2.36 2.36 0 0 0-.6 1.31zm-3.51 1.62a2.56 2.56 0 0 0 .71 1.7 2.1 2.1 0 0 0 1.48.53 2.66 2.66 0 0 0 .84-.12 5.27 5.27 0 0 0 .62-.26l.51-.26a1 1 0 0 1 .48-.12.57.57 0 0 1 .5.24l.81 1a4.36 4.36 0 0 1-.93.81 4.3 4.3 0 0 1-1 .48 6 6 0 0 1-1.06.25 8.78 8.78 0 0 1-1 .06 5.31 5.31 0 0 1-1.84-.31 4.26 4.26 0 0 1-1.5-1 4.54 4.54 0 0 1-1-1.57 5.82 5.82 0 0 1-.38-2.18 5 5 0 0 1 .32-1.77 4.46 4.46 0 0 1 .92-1.47 4.42 4.42 0 0 1 1.45-1 4.9 4.9 0 0 1 1.92-.37 4.85 4.85 0 0 1 1.7.29 3.64 3.64 0 0 1 1.32.84 3.79 3.79 0 0 1 .87 1.34 5.16 5.16 0 0 1 .31 1.81 3.49 3.49 0 0 1 0 .51.86.86 0 0 1-.1.32.42.42 0 0 1-.3.19.93.93 0 0 1-.31 0zm10-4.15a6 6 0 0 1 .55-.47 3.28 3.28 0 0 1 .62-.37 3.93 3.93 0 0 1 .71-.23 3.64 3.64 0 0 1 .83-.09 3.24 3.24 0 0 1 1.36.27 2.8 2.8 0 0 1 1 .74 3.21 3.21 0 0 1 .62 1.12 5 5 0 0 1 .2 1.42v5.93h-2.79V37.3a1.64 1.64 0 0 0-.31-1.07 1.15 1.15 0 0 0-.93-.38 2.08 2.08 0 0 0-.86.19 3.47 3.47 0 0 0-.78.53v6.66h-2.79V33.9h1.73a.64.64 0 0 1 .68.47z" fill="#b91d8a"/><g id="text-right"><path class="cls-3" d="M370.71 36.07h-.93a1.63 1.63 0 0 0-.92.24 1.4 1.4 0 0 0-.56.66v6.34h-2.52v-9.42h2.35l.11 1.39a2.93 2.93 0 0 1 .86-1.15 1.9 1.9 0 0 1 1.2-.41 2 2 0 0 1 .36 0l.32.07zM376.15 43.46a4.25 4.25 0 0 1-3.24-1.3 4.66 4.66 0 0 1-1.22-3.31v-.34a5.19 5.19 0 0 1 1.15-3.45 4.29 4.29 0 0 1 6-.2 4.43 4.43 0 0 1 1.05 3.1v1.38h-5.6a2.49 2.49 0 0 0 .62 1.52 1.94 1.94 0 0 0 1.5.6 5.05 5.05 0 0 0 1.4-.17 6.38 6.38 0 0 0 1.21-.53l.68 1.56a4.79 4.79 0 0 1-1.5.78 6.32 6.32 0 0 1-2.05.36zm-.23-7.79a1.31 1.31 0 0 0-1.1.54 2.79 2.79 0 0 0-.51 1.41v.05h3.1v-.23a2 2 0 0 0-.37-1.29 1.39 1.39 0 0 0-1.12-.48zM386.47 40.69a.89.89 0 0 0-.4-.72 4.09 4.09 0 0 0-1.5-.53 6 6 0 0 1-2.51-1 2.18 2.18 0 0 1-.85-1.81 2.57 2.57 0 0 1 1-2 4.11 4.11 0 0 1 2.73-.85 4.49 4.49 0 0 1 2.86.84 2.48 2.48 0 0 1 1 2.13v.05h-2.45a1.24 1.24 0 0 0-.36-.92 1.42 1.42 0 0 0-1.05-.36 1.46 1.46 0 0 0-1 .3 1 1 0 0 0-.35.75.86.86 0 0 0 .37.71 4.09 4.09 0 0 0 1.5.5 6 6 0 0 1 2.57 1 2.24 2.24 0 0 1 .84 1.85 2.48 2.48 0 0 1-1.08 2.07 4.73 4.73 0 0 1-2.86.8 4.35 4.35 0 0 1-3-1 2.66 2.66 0 0 1-1-2.16v-.06h2.31a1.32 1.32 0 0 0 .5 1.1 2.07 2.07 0 0 0 1.22.33 1.78 1.78 0 0 0 1.07-.27.9.9 0 0 0 .44-.75zM399 38.85a5.38 5.38 0 0 1-1 3.34 3.19 3.19 0 0 1-2.69 1.27 3 3 0 0 1-1.31-.27 2.72 2.72 0 0 1-1-.81v4.5h-2.53v-13h2.29L393 35a3.11 3.11 0 0 1 1-1 2.75 2.75 0 0 1 1.37-.33 3.14 3.14 0 0 1 2.71 1.36 6.09 6.09 0 0 1 1 3.58zm-2.53-.2a4.46 4.46 0 0 0-.47-2.15 1.44 1.44 0 0 0-1.35-.83 1.84 1.84 0 0 0-1 .24 1.63 1.63 0 0 0-.64.66v4.12a1.51 1.51 0 0 0 .64.61 2.1 2.1 0 0 0 1 .21 1.47 1.47 0 0 0 1.35-.72 3.9 3.9 0 0 0 .43-2zM400.19 38.5a5 5 0 0 1 1.17-3.44 4.61 4.61 0 0 1 6.5 0A5 5 0 0 1 409 38.5v.18a5 5 0 0 1-1.17 3.45 4.65 4.65 0 0 1-6.51 0 5 5 0 0 1-1.17-3.45zm2.52.18a4 4 0 0 0 .45 2 1.74 1.74 0 0 0 2.9 0 4.1 4.1 0 0 0 .45-2v-.19a3.94 3.94 0 0 0-.46-2 1.71 1.71 0 0 0-2.88 0 4 4 0 0 0-.46 2zM412.92 33.89l.11 1.35a3.44 3.44 0 0 1 1.16-1.12 2.91 2.91 0 0 1 1.53-.4 2.83 2.83 0 0 1 2.22.89 4.14 4.14 0 0 1 .8 2.8v5.87h-2.54v-5.87a1.92 1.92 0 0 0-.38-1.34 1.53 1.53 0 0 0-1.16-.4 1.93 1.93 0 0 0-.9.21 1.83 1.83 0 0 0-.67.57v6.83h-2.53v-9.39zM420.24 38.66a6.09 6.09 0 0 1 1-3.58 3.11 3.11 0 0 1 2.7-1.36 2.67 2.67 0 0 1 1.27.3 3.22 3.22 0 0 1 1 .87v-5.14h2.54v13.53h-2.17l-.21-1.15a3.05 3.05 0 0 1-1 1 2.78 2.78 0 0 1-1.39.34 3.16 3.16 0 0 1-2.68-1.27 5.38 5.38 0 0 1-1-3.34zm2.52.19a3.87 3.87 0 0 0 .42 1.95 1.46 1.46 0 0 0 1.35.71 2.09 2.09 0 0 0 1-.22 1.79 1.79 0 0 0 .66-.65v-4a2 2 0 0 0-.66-.69 1.72 1.72 0 0 0-.94-.25 1.44 1.44 0 0 0-1.36.83 4.76 4.76 0 0 0-.43 2.16zM438.09 31.6v2.29h1.58v1.78h-1.58v4.78a1.12 1.12 0 0 0 .22.78.8.8 0 0 0 .61.23 1.72 1.72 0 0 0 .34 0 3 3 0 0 0 .34-.07l.21 1.83a4.24 4.24 0 0 1-.74.19 4 4 0 0 1-.79.07 2.69 2.69 0 0 1-2-.72 3.16 3.16 0 0 1-.7-2.28v-4.81h-1.37v-1.78h1.37V31.6zM440.89 38.5a5 5 0 0 1 1.17-3.44 4.61 4.61 0 0 1 6.5 0 5 5 0 0 1 1.18 3.44v.18a5 5 0 0 1-1.17 3.45 4.65 4.65 0 0 1-6.51 0 5 5 0 0 1-1.17-3.45zm2.52.18a4 4 0 0 0 .45 2 1.74 1.74 0 0 0 2.9 0 4.1 4.1 0 0 0 .45-2v-.19a3.94 3.94 0 0 0-.46-2 1.71 1.71 0 0 0-2.88 0 4 4 0 0 0-.46 2zM458.74 31.6v2.29h1.57v1.78h-1.57v4.78a1.12 1.12 0 0 0 .22.78.78.78 0 0 0 .61.23 1.72 1.72 0 0 0 .34 0 2.46 2.46 0 0 0 .33-.07l.22 1.83a4.24 4.24 0 0 1-.74.19 4 4 0 0 1-.79.07 2.69 2.69 0 0 1-2-.72 3.16 3.16 0 0 1-.71-2.28v-4.81h-1.37v-1.78h1.37V31.6zM464.4 35.08a3.21 3.21 0 0 1 1.08-1 2.86 2.86 0 0 1 1.42-.36 2.89 2.89 0 0 1 2.31 1 4.53 4.53 0 0 1 .83 3v5.57h-2.53v-5.6a2.46 2.46 0 0 0-.38-1.55 1.41 1.41 0 0 0-1.15-.46 2 2 0 0 0-.92.19 1.7 1.7 0 0 0-.66.52v6.9h-2.53V29.75h2.53zM477.46 43.28a6.8 6.8 0 0 1-.24-.68 4.48 4.48 0 0 1-.14-.73 3.41 3.41 0 0 1-1 1.14 2.55 2.55 0 0 1-1.52.45 3.15 3.15 0 0 1-2.27-.76 2.7 2.7 0 0 1-.8-2.07 2.48 2.48 0 0 1 1.06-2.14 5.35 5.35 0 0 1 3.1-.75H477V37a1.45 1.45 0 0 0-.35-1.05 1.39 1.39 0 0 0-1.05-.37 1.37 1.37 0 0 0-.95.3 1 1 0 0 0-.33.82h-2.42v-.06a2.41 2.41 0 0 1 1-2.05 4.54 4.54 0 0 1 2.87-.86 4.19 4.19 0 0 1 2.74.85 3 3 0 0 1 1.07 2.42v3.87a6.92 6.92 0 0 0 .1 1.24 6.23 6.23 0 0 0 .31 1.16zm-2.32-1.69a2.17 2.17 0 0 0 1.19-.33 1.69 1.69 0 0 0 .7-.77v-1.32h-1.41a1.68 1.68 0 0 0-1.22.4 1.3 1.3 0 0 0-.42 1 1 1 0 0 0 .31.75 1.23 1.23 0 0 0 .85.27zM484.5 31.6v2.29h1.58v1.78h-1.58v4.78a1.12 1.12 0 0 0 .23.78.78.78 0 0 0 .6.23 1.83 1.83 0 0 0 .35 0l.33-.07.22 1.83a4.58 4.58 0 0 1-.75.19 3.87 3.87 0 0 1-.79.07 2.69 2.69 0 0 1-2-.72 3.12 3.12 0 0 1-.71-2.28v-4.81h-1.38v-1.78h1.4V31.6zM496.27 43.46a4.25 4.25 0 0 1-3.24-1.3 4.66 4.66 0 0 1-1.22-3.31v-.34a5.14 5.14 0 0 1 1.19-3.45 4.29 4.29 0 0 1 6-.2 4.43 4.43 0 0 1 1 3.14v1.38h-5.6a2.49 2.49 0 0 0 .62 1.52 1.94 1.94 0 0 0 1.5.6 5 5 0 0 0 1.4-.17 6.67 6.67 0 0 0 1.21-.53l.68 1.56a4.79 4.79 0 0 1-1.5.78 6.32 6.32 0 0 1-2.04.32zm-.27-7.79a1.34 1.34 0 0 0-1.11.54 2.79 2.79 0 0 0-.5 1.41v.05h3.1v-.23a2 2 0 0 0-.38-1.29 1.36 1.36 0 0 0-1.11-.48zM504.78 39.78l.16.87h.06l.18-.87 1.54-5.89h2.65l-3.2 9.39h-2.42l-3.19-9.39h2.65zM514.48 43.46a4.25 4.25 0 0 1-3.24-1.3 4.66 4.66 0 0 1-1.24-3.31v-.34a5.19 5.19 0 0 1 1.15-3.45 3.82 3.82 0 0 1 3.09-1.34 3.78 3.78 0 0 1 2.94 1.14 4.43 4.43 0 0 1 1 3.1v1.38h-5.6a2.49 2.49 0 0 0 .62 1.52 1.94 1.94 0 0 0 1.5.6 5 5 0 0 0 1.4-.17 6.38 6.38 0 0 0 1.21-.53l.69 1.56a5 5 0 0 1-1.5.78 6.43 6.43 0 0 1-2.02.36zm-.22-7.79a1.31 1.31 0 0 0-1.11.54 2.79 2.79 0 0 0-.51 1.41v.05h3.1v-.23a2 2 0 0 0-.37-1.29 1.36 1.36 0 0 0-1.11-.48zM522 33.89l.12 1.35a3.32 3.32 0 0 1 1.15-1.12 3 3 0 0 1 1.54-.4 2.86 2.86 0 0 1 2.22.89 4.14 4.14 0 0 1 .79 2.8v5.87h-2.54v-5.87a1.92 1.92 0 0 0-.38-1.34 1.5 1.5 0 0 0-1.15-.4 1.87 1.87 0 0 0-.9.21 1.75 1.75 0 0 0-.67.57v6.83h-2.53v-9.39zM532.76 31.6v2.29h1.58v1.78h-1.58v4.78a1.12 1.12 0 0 0 .23.78.78.78 0 0 0 .61.23 1.78 1.78 0 0 0 .34 0l.33-.07.22 1.83a4.34 4.34 0 0 1-.75.19 3.87 3.87 0 0 1-.79.07 2.69 2.69 0 0 1-2-.72 3.16 3.16 0 0 1-.71-2.28v-4.81h-1.37v-1.78h1.37V31.6z"/></g></svg>