<svg id="sensors" data-name="sensors" xmlns="http://www.w3.org/2000/svg" viewBox="0 0 36 36"><defs><style>.cls-1{fill:#696969}</style></defs><path class="cls-1" d="M7.08 6.42c1.42 0 2.13 1.16 1.58 2.11a5.71 5.71 0 0 1-.75.89A13.09 13.09 0 0 0 8 26.86c.25.29.66.6.68.91a2.32 2.32 0 0 1-.39 1.59c-.28.29-1 .24-1.51.17-.28 0-.53-.41-.77-.66a16 16 0 0 1 0-21.51 8.89 8.89 0 0 1 1.07-.94z"/><path class="cls-1" d="M7 17.15a10.16 10.16 0 0 1 2.82-6.43c.65-.73 1.42-1.09 2.23-.32a1.38 1.38 0 0 1-.05 2.17 8 8 0 0 0 0 10.92 1.34 1.34 0 0 1 0 2.15c-.79.7-1.52.39-2.14-.31A11.25 11.25 0 0 1 7 17.15zM34.2 18a16.07 16.07 0 0 1-4.3 10.86c-.68.75-1.44 1.26-2.33.41s-.47-1.52.17-2.27c4.85-5.62 4.84-12.41 0-18-.65-.75-.93-1.52-.13-2.27s1.58-.41 2.25.31A15.94 15.94 0 0 1 34.2 18z"/><path class="cls-1" d="M29 17.77a10.79 10.79 0 0 1-2.82 7.48c-.64.72-1.39 1.14-2.23.38s-.53-1.51.11-2.27c2.85-3.42 2.85-7.29 0-10.71-.64-.77-.9-1.53-.09-2.27s1.58-.38 2.24.35A10.6 10.6 0 0 1 29 17.77z"/><circle cx="18" cy="18" r="3.31" fill="#e6873c"/></svg>