<svg data-name="Layer 1" xmlns="http://www.w3.org/2000/svg" viewBox="0 0 36 36"><path d="M31.78 20.06h-3.7c-.21 0-.41.2-.62.41-.41.82-.61 1.44-1 2.26a9.73 9.73 0 0 1-8.22 4.53 9.9 9.9 0 0 1-6.59-2.68l2.68-2.67a1.63 1.63 0 0 0 .41-.82 1.33 1.33 0 0 0-1.24-1.24H5a1.32 1.32 0 0 0-1.23 1.24v8.43A1.32 1.32 0 0 0 5 30.76a1.07 1.07 0 0 0 .82-.41l2.47-2.47a14.52 14.52 0 0 0 24.11-7.41v-.21c0 .21-.21-.2-.62-.2z" fill="#369acd"/><path d="M4.42 15.94h3.71c.2 0 .41-.2.61-.41.41-.82.62-1.44 1-2.26A9.75 9.75 0 0 1 18 8.74a9.88 9.88 0 0 1 6.58 2.68l-2.67 2.67a1.55 1.55 0 0 0-.41.82 1.32 1.32 0 0 0 1.23 1.24h8.44a1.33 1.33 0 0 0 1.23-1.24V6.48a1.33 1.33 0 0 0-1.23-1.24 1.09 1.09 0 0 0-.83.41l-2.47 2.47a15 15 0 0 0-10.08-3.91A14.55 14.55 0 0 0 3.6 15.53v.21c.21-.21.4.2.82.2z" fill="#e6873c"/></svg>